<svg width="173" height="37" viewBox="0 0 173 37" fill="none" xmlns="http://www.w3.org/2000/svg">
<rect width="36" height="37" rx="10" fill="#003B64"/>
<g clip-path="url(#clip0_165_243)">
<path d="M6 16.1089L11.2539 19.1439L16.5078 16.1089V10.035L11.2539 7L6 10.035V16.1089Z" fill="white"/>
<path d="M19.4929 10.035V16.1089L24.7468 19.1439L30.0008 16.1089V10.035L24.7468 7L19.4929 10.035Z" fill="#46A7EA"/>
<path d="M12.7572 21.8934V27.9665L18.0112 31.0016L23.2651 27.9665V21.8957L18.0112 18.8607L12.7572 21.8934Z" fill="#0062A6"/>
</g>
<path d="M54.321 27V9.54545H58.5398V16.9261H58.7699L64.5398 9.54545H69.5085L63.321 17.3352L69.6193 27H64.5739L60.2273 20.1392L58.5398 22.2699V27H54.321ZM75.3402 9.54545V27H71.1726V9.54545H75.3402ZM84.1122 27.2472C82.7429 27.2472 81.5611 26.9773 80.5668 26.4375C79.5781 25.892 78.8168 25.1165 78.2827 24.1108C77.7543 23.0994 77.4901 21.8977 77.4901 20.5057C77.4901 19.1534 77.7571 17.9716 78.2912 16.9602C78.8253 15.9432 79.5781 15.1534 80.5497 14.5909C81.5213 14.0227 82.6662 13.7386 83.9844 13.7386C84.9162 13.7386 85.7685 13.8835 86.5412 14.1733C87.3139 14.4631 87.9815 14.892 88.544 15.4602C89.1065 16.0284 89.544 16.7301 89.8565 17.5653C90.169 18.3949 90.3253 19.3466 90.3253 20.4205V21.4602H78.9474V19.0398H86.4474C86.4418 18.5966 86.3366 18.2017 86.1321 17.8551C85.9276 17.5085 85.6463 17.2386 85.2884 17.0455C84.9361 16.8466 84.5298 16.7472 84.0696 16.7472C83.6037 16.7472 83.1861 16.8523 82.8168 17.0625C82.4474 17.267 82.1548 17.5483 81.9389 17.9062C81.723 18.2585 81.6094 18.6591 81.598 19.108V21.571C81.598 22.1051 81.7031 22.5739 81.9134 22.9773C82.1236 23.375 82.4219 23.6847 82.8082 23.9062C83.1946 24.1278 83.6548 24.2386 84.1889 24.2386C84.5582 24.2386 84.8935 24.1875 85.1946 24.0852C85.4957 23.983 85.7543 23.8324 85.9702 23.6335C86.1861 23.4347 86.348 23.1903 86.456 22.9006L90.2827 23.0114C90.1236 23.8693 89.7741 24.6165 89.2344 25.2528C88.7003 25.8835 87.9986 26.375 87.1293 26.7273C86.2599 27.0739 85.2543 27.2472 84.1122 27.2472ZM96.1442 27.2216C95.3089 27.2216 94.5675 27.0824 93.9197 26.804C93.2777 26.5199 92.7692 26.0937 92.3942 25.5256C92.0249 24.9517 91.8402 24.233 91.8402 23.3693C91.8402 22.642 91.968 22.0284 92.2237 21.5284C92.4794 21.0284 92.8317 20.6222 93.2805 20.3097C93.7294 19.9972 94.2464 19.7614 94.8317 19.6023C95.4169 19.4375 96.0419 19.3267 96.7067 19.2699C97.451 19.2017 98.0504 19.1307 98.505 19.0568C98.9595 18.9773 99.2891 18.8665 99.4936 18.7244C99.7038 18.5767 99.8089 18.3693 99.8089 18.1023V18.0597C99.8089 17.6222 99.6584 17.2841 99.3572 17.0455C99.0561 16.8068 98.6499 16.6875 98.1385 16.6875C97.5874 16.6875 97.1442 16.8068 96.8089 17.0455C96.4737 17.2841 96.2607 17.6136 96.1697 18.0341L92.326 17.8977C92.4396 17.1023 92.7322 16.392 93.2038 15.767C93.6811 15.1364 94.3345 14.642 95.1641 14.2841C95.9993 13.9205 97.0021 13.7386 98.1726 13.7386C99.0078 13.7386 99.7777 13.8381 100.482 14.0369C101.187 14.2301 101.8 14.5142 102.323 14.8892C102.846 15.2585 103.249 15.7131 103.533 16.2528C103.823 16.7926 103.968 17.4091 103.968 18.1023V27H100.048V25.1761H99.9453C99.7124 25.6193 99.4141 25.9943 99.0504 26.3011C98.6925 26.608 98.2692 26.8381 97.7805 26.9915C97.2976 27.1449 96.7521 27.2216 96.1442 27.2216ZM97.4311 24.4943C97.88 24.4943 98.2834 24.4034 98.6413 24.2216C99.005 24.0398 99.2947 23.7898 99.5107 23.4716C99.7266 23.1477 99.8345 22.7727 99.8345 22.3466V21.1023C99.7152 21.1648 99.5703 21.2216 99.3999 21.2727C99.2351 21.3239 99.0533 21.3722 98.8544 21.4176C98.6555 21.4631 98.451 21.5028 98.2408 21.5369C98.0305 21.571 97.8288 21.6023 97.6357 21.6307C97.2436 21.6932 96.9084 21.7898 96.63 21.9205C96.3572 22.0511 96.147 22.2216 95.9993 22.4318C95.8572 22.6364 95.7862 22.8807 95.7862 23.1648C95.7862 23.5966 95.9396 23.9261 96.2464 24.1534C96.5589 24.3807 96.9538 24.4943 97.4311 24.4943ZM106.516 27V13.9091H110.565V16.2955H110.701C110.94 15.4318 111.329 14.7898 111.869 14.3693C112.408 13.9432 113.036 13.7301 113.752 13.7301C113.945 13.7301 114.144 13.7443 114.349 13.7727C114.553 13.7955 114.744 13.8324 114.92 13.8835V17.5057C114.721 17.4375 114.46 17.3835 114.136 17.3438C113.817 17.304 113.533 17.2841 113.283 17.2841C112.789 17.2841 112.343 17.3949 111.945 17.6165C111.553 17.8324 111.244 18.1364 111.016 18.5284C110.795 18.9148 110.684 19.3693 110.684 19.892V27H106.516ZM119.816 27.2216C118.981 27.2216 118.239 27.0824 117.592 26.804C116.95 26.5199 116.441 26.0937 116.066 25.5256C115.697 24.9517 115.512 24.233 115.512 23.3693C115.512 22.642 115.64 22.0284 115.896 21.5284C116.151 21.0284 116.504 20.6222 116.952 20.3097C117.401 19.9972 117.918 19.7614 118.504 19.6023C119.089 19.4375 119.714 19.3267 120.379 19.2699C121.123 19.2017 121.722 19.1307 122.177 19.0568C122.631 18.9773 122.961 18.8665 123.165 18.7244C123.376 18.5767 123.481 18.3693 123.481 18.1023V18.0597C123.481 17.6222 123.33 17.2841 123.029 17.0455C122.728 16.8068 122.322 16.6875 121.81 16.6875C121.259 16.6875 120.816 16.8068 120.481 17.0455C120.146 17.2841 119.933 17.6136 119.842 18.0341L115.998 17.8977C116.112 17.1023 116.404 16.392 116.876 15.767C117.353 15.1364 118.006 14.642 118.836 14.2841C119.671 13.9205 120.674 13.7386 121.844 13.7386C122.68 13.7386 123.45 13.8381 124.154 14.0369C124.859 14.2301 125.472 14.5142 125.995 14.8892C126.518 15.2585 126.921 15.7131 127.205 16.2528C127.495 16.7926 127.64 17.4091 127.64 18.1023V27H123.719V25.1761H123.617C123.384 25.6193 123.086 25.9943 122.722 26.3011C122.364 26.608 121.941 26.8381 121.452 26.9915C120.969 27.1449 120.424 27.2216 119.816 27.2216ZM121.103 24.4943C121.552 24.4943 121.955 24.4034 122.313 24.2216C122.677 24.0398 122.967 23.7898 123.183 23.4716C123.398 23.1477 123.506 22.7727 123.506 22.3466V21.1023C123.387 21.1648 123.242 21.2216 123.072 21.2727C122.907 21.3239 122.725 21.3722 122.526 21.4176C122.327 21.4631 122.123 21.5028 121.913 21.5369C121.702 21.571 121.501 21.6023 121.308 21.6307C120.915 21.6932 120.58 21.7898 120.302 21.9205C120.029 22.0511 119.819 22.2216 119.671 22.4318C119.529 22.6364 119.458 22.8807 119.458 23.1648C119.458 23.5966 119.612 23.9261 119.918 24.1534C120.231 24.3807 120.626 24.4943 121.103 24.4943ZM134.356 19.5341V27H130.188V13.9091H134.151V16.3125H134.296C134.586 15.5114 135.08 14.8835 135.779 14.429C136.478 13.9688 137.31 13.7386 138.276 13.7386C139.197 13.7386 139.995 13.946 140.671 14.3608C141.353 14.7699 141.881 15.3437 142.256 16.0824C142.637 16.8153 142.825 17.6733 142.819 18.6562V27H138.651V19.4744C138.657 18.7472 138.472 18.179 138.097 17.7699C137.728 17.3608 137.214 17.1562 136.555 17.1562C136.117 17.1562 135.731 17.2528 135.396 17.446C135.066 17.6335 134.81 17.9034 134.629 18.2557C134.452 18.608 134.362 19.0341 134.356 19.5341ZM151.51 27.2472C150.129 27.2472 148.945 26.9631 147.956 26.3949C146.973 25.8267 146.217 25.0369 145.689 24.0256C145.161 23.0085 144.896 21.8324 144.896 20.4972C144.896 19.1562 145.161 17.9801 145.689 16.9688C146.223 15.9517 146.982 15.1591 147.964 14.5909C148.953 14.0227 150.132 13.7386 151.501 13.7386C152.712 13.7386 153.766 13.9574 154.663 14.3949C155.567 14.8324 156.271 15.4517 156.777 16.2528C157.288 17.0483 157.558 17.983 157.587 19.0568H153.692C153.612 18.3864 153.385 17.8608 153.01 17.4801C152.641 17.0994 152.158 16.9091 151.561 16.9091C151.078 16.9091 150.655 17.0455 150.291 17.3182C149.928 17.5852 149.643 17.983 149.439 18.5114C149.24 19.0341 149.141 19.6818 149.141 20.4545C149.141 21.2273 149.24 21.8807 149.439 22.4148C149.643 22.9432 149.928 23.3437 150.291 23.6165C150.655 23.8835 151.078 24.017 151.561 24.017C151.947 24.017 152.288 23.9347 152.584 23.7699C152.885 23.6051 153.132 23.3636 153.325 23.0455C153.518 22.7216 153.641 22.3295 153.692 21.8693H157.587C157.547 22.9489 157.277 23.892 156.777 24.6989C156.283 25.5057 155.587 26.1335 154.689 26.5824C153.797 27.0256 152.737 27.2472 151.51 27.2472ZM165.839 27.2472C164.469 27.2472 163.288 26.9773 162.293 26.4375C161.305 25.892 160.543 25.1165 160.009 24.1108C159.481 23.0994 159.217 21.8977 159.217 20.5057C159.217 19.1534 159.484 17.9716 160.018 16.9602C160.552 15.9432 161.305 15.1534 162.276 14.5909C163.248 14.0227 164.393 13.7386 165.711 13.7386C166.643 13.7386 167.495 13.8835 168.268 14.1733C169.04 14.4631 169.708 14.892 170.271 15.4602C170.833 16.0284 171.271 16.7301 171.583 17.5653C171.896 18.3949 172.052 19.3466 172.052 20.4205V21.4602H160.674V19.0398H168.174C168.168 18.5966 168.063 18.2017 167.859 17.8551C167.654 17.5085 167.373 17.2386 167.015 17.0455C166.663 16.8466 166.256 16.7472 165.796 16.7472C165.33 16.7472 164.913 16.8523 164.543 17.0625C164.174 17.267 163.881 17.5483 163.665 17.9062C163.45 18.2585 163.336 18.6591 163.325 19.108V21.571C163.325 22.1051 163.43 22.5739 163.64 22.9773C163.85 23.375 164.148 23.6847 164.535 23.9062C164.921 24.1278 165.381 24.2386 165.915 24.2386C166.285 24.2386 166.62 24.1875 166.921 24.0852C167.222 23.983 167.481 23.8324 167.697 23.6335C167.913 23.4347 168.075 23.1903 168.183 22.9006L172.009 23.0114C171.85 23.8693 171.501 24.6165 170.961 25.2528C170.427 25.8835 169.725 26.375 168.856 26.7273C167.987 27.0739 166.981 27.2472 165.839 27.2472Z" fill="black"/>
<defs>
<clipPath id="clip0_165_243">
<rect width="24" height="24" fill="white" transform="translate(6 7)"/>
</clipPath>
</defs>
</svg>
